<?xml version="1.0" encoding="UTF-8"?>
<svg width="23px" height="18px" viewBox="0 0 23 18" version="1.1" xmlns="http://www.w3.org/2000/svg" xmlns:xlink="http://www.w3.org/1999/xlink">
    <!-- Generator: Sketch 50 (54983) - http://www.bohemiancoding.com/sketch -->
    <title>noun_1220595_cc</title>
    <desc>Created with Sketch.</desc>
    <defs></defs>
    <g id="Page-1" stroke="none" stroke-width="1" fill="none" fill-rule="evenodd">
        <g id="PROMANTUS" transform="translate(-445.000000, -5075.000000)" fill="#69F1B3" fill-rule="nonzero">
            <g id="Group-4" transform="translate(-95.000000, 4879.000000)">
                <g id="Group-22" transform="translate(195.000000, 47.000000)">
                    <g id="noun_1220595_cc" transform="translate(345.000000, 149.000000)">
                        <g id="Group">
                            <path d="M13.852071,13.257329 L8.14792899,13.257329 L8.14792899,11 L1,11 L1,17.5211726 C1,17.7947883 1.21301775,18 1.49704142,18 L20.5029586,18 C20.7869822,18 21,17.7947883 21,17.5211726 L21,11 L13.852071,11 L13.852071,13.257329 Z" id="Shape"></path>
                            <rect id="Rectangle-path" x="10" y="9" width="3" height="3"></rect>
                            <path d="M22.4910432,2.85097192 L16.0200211,2.85097192 L16.0200211,0.453563715 C16.0200211,0.194384449 15.8018967,0 15.5110643,0 L7.48893572,0 C7.19810327,0 6.97997893,0.194384449 6.97997893,0.453563715 L6.97997893,2.85097192 L0.508956797,2.85097192 C0.218124341,2.85097192 0,3.04535637 0,3.30453564 L0,9.54643629 C0,9.80561555 0.218124341,10 0.508956797,10 L8.57955743,10 L8.57955743,7.99136069 L14.4204426,7.99136069 L14.4204426,9.97840173 L22.4910432,9.97840173 C22.7818757,9.97840173 23,9.78401728 23,9.52483801 L23,3.28293737 C23,3.04535637 22.7818757,2.85097192 22.4910432,2.85097192 Z M15,2 L9,2 L9,1 L14.975,1 L14.975,2 L15,2 Z" id="Shape"></path>
                        </g>
                    </g>
                </g>
            </g>
        </g>
    </g>
</svg>