<?xml version="1.0" encoding="UTF-8"?>
<svg width="20px" height="20px" viewBox="0 0 20 20" version="1.1" xmlns="http://www.w3.org/2000/svg" xmlns:xlink="http://www.w3.org/1999/xlink">
    <!-- Generator: Sketch 50 (54983) - http://www.bohemiancoding.com/sketch -->
    <title>noun_1024592_cc</title>
    <desc>Created with Sketch.</desc>
    <defs></defs>
    <g id="Page-1" stroke="none" stroke-width="1" fill="none" fill-rule="evenodd">
        <g id="PROMANTUS" transform="translate(-158.000000, -1994.000000)" fill="#303344" fill-rule="nonzero">
            <g id="Group-7" transform="translate(158.000000, 1575.000000)">
                <g id="noun_1024592_cc" transform="translate(0.000000, 419.000000)">
                    <g id="Group">
                        <path d="M19.5,7.4 C19.9,7 19.9,6.4 19.5,6 L13.8,0.3 C13.4,-0.1 12.8,-0.1 12.4,0.3 C12,0.7 12,1.3 12.4,1.7 L1.2,13.1 C-0.4,14.7 -0.4,17.2 1.2,18.8 C2,19.6 4.4,21 6.9,18.8 L18.1,7.4 C18.7,8 19.3,7.6 19.5,7.4 Z M5.4,17.3 C4.6,18.1 3.4,18.1 2.6,17.3 C1.8,16.5 1.8,15.3 2.6,14.5 L5.2,11.9 L10.9,11.9 L5.4,17.3 Z M12.8,9.9 L7.2,9.9 L13.9,3.2 L16.7,6 L12.8,9.9 Z" id="Shape"></path>
                        <path d="M17.8,12.4 C17.4,11.9 16.5,11.9 16.2,12.4 C15.5,13.3 14,15.7 14,17 C14,18.7 15.3,20 17,20 C18.7,20 20,18.7 20,17 C20,15.6 18.5,13.3 17.8,12.4 Z M17,17.9 C16.4,17.9 16,17.5 16,16.9 C16,16.6 16.4,15.7 17,14.8 C17.6,15.8 18,16.6 18,16.9 C18,17.5 17.6,17.9 17,17.9 Z" id="Shape"></path>
                    </g>
                </g>
            </g>
        </g>
    </g>
</svg>