<?xml version="1.0" encoding="UTF-8"?>
<svg width="20px" height="20px" viewBox="0 0 20 20" version="1.1" xmlns="http://www.w3.org/2000/svg" xmlns:xlink="http://www.w3.org/1999/xlink">
    <!-- Generator: Sketch 50 (54983) - http://www.bohemiancoding.com/sketch -->
    <title>noun_1024638_cc</title>
    <desc>Created with Sketch.</desc>
    <defs></defs>
    <g id="Page-1" stroke="none" stroke-width="1" fill="none" fill-rule="evenodd">
        <g id="PROMANTUS" transform="translate(-158.000000, -1811.000000)" fill="#303344" fill-rule="nonzero">
            <g id="Group-7" transform="translate(158.000000, 1575.000000)">
                <g id="noun_1024638_cc" transform="translate(0.000000, 236.000000)">
                    <path d="M19.7,8.3 L12,0.8 C10.9,-0.2 9.2,-0.2 8,0.8 L0.3,8.3 C-0.1,8.7 -0.1,9.3 0.3,9.7 C0.5,9.9 1.1,10.3 1.7,9.7 L2,9.4 L2,17 C2,18.7 3.3,20 5,20 L15,20 C16.7,20 18,18.7 18,17 L18,9.4 L18.3,9.7 C18.7,10.1 19.3,10.1 19.7,9.7 C20.1,9.3 20.1,8.7 19.7,8.3 Z M9.3,2.3 C9.7,2 10.3,2 10.6,2.3 L14.8,6.4 L5.1,6.4 L9.3,2.3 Z M11,18 L9,18 L9,14 L11,14 L11,18 Z M16,17 C16,17.6 15.6,18 15,18 L13,18 L13,13 C13,12.4 12.6,12 12,12 L8,12 C7.4,12 7,12.4 7,13 L7,18 L5,18 C4.4,18 4,17.6 4,17 L4,8.4 L16,8.4 L16,17 Z" id="Shape"></path>
                </g>
            </g>
        </g>
    </g>
</svg>