<?xml version="1.0" encoding="UTF-8"?>
<svg width="22px" height="16px" viewBox="0 0 22 16" version="1.1" xmlns="http://www.w3.org/2000/svg" xmlns:xlink="http://www.w3.org/1999/xlink">
    <!-- Generator: Sketch 50 (54983) - http://www.bohemiancoding.com/sketch -->
    <title>noun_1213651_cc</title>
    <desc>Created with Sketch.</desc>
    <defs></defs>
    <g id="Page-1" stroke="none" stroke-width="1" fill="none" fill-rule="evenodd">
        <g id="PROMANTUS" transform="translate(-446.000000, -5041.000000)" fill="#69F1B3" fill-rule="nonzero">
            <g id="Group-4" transform="translate(-95.000000, 4879.000000)">
                <g id="Group-22" transform="translate(195.000000, 47.000000)">
                    <g id="noun_1213651_cc" transform="translate(346.000000, 115.000000)">
                        <path d="M19.1253952,0 L2.87460485,0 C1.27502634,0 0,1.33731343 0,2.96119403 L0,13.038806 C0,14.6865672 1.29820864,16 2.87460485,16 L19.1253952,16 C20.7249737,16 22,14.6626866 22,13.038806 L22,2.96119403 C22,1.31343284 20.7017914,0 19.1253952,0 Z M17.8243377,11.7652174 C17.6849692,11.9295652 17.4991446,12 17.31332,12 C17.1507234,12 16.9881269,11.9530435 16.8719865,11.8356522 L12.9464414,8.40782682 L11.041739,10.074783 C10.739774,10.3565221 10.2752124,10.3565221 9.95001934,10.074783 L8.04531697,8.40782682 L4.14299992,11.8356522 C3.81780683,12.1173913 3.28356105,12.0234783 3.07450835,11.6008696 C2.93513988,11.3191306 3.02805219,10.9669567 3.26033297,10.7791307 L7.00005347,7.49217483 L3.26033297,4.22869723 C3.00482412,3.99391467 2.91191181,3.61826257 3.09773643,3.3365235 C3.3300172,2.9608714 3.81780683,2.89043664 4.11977184,3.17217571 L10.3448967,8.61913112 C10.437809,8.68956589 10.5539494,8.68956589 10.6468617,8.61913112 L16.8719865,3.17217571 C17.1739515,2.89043664 17.6617411,2.9608714 17.8940219,3.3365235 C18.0798465,3.61826257 17.9869342,4.01739293 17.7314254,4.22869723 L13.9917048,7.49217483 L17.7546534,10.8026089 C18.0566184,11.0373915 18.0798465,11.4600001 17.8243377,11.7652174 Z" id="Shape"></path>
                    </g>
                </g>
            </g>
        </g>
    </g>
</svg>