<?xml version="1.0" encoding="UTF-8"?>
<svg width="20px" height="20px" viewBox="0 0 20 20" version="1.1" xmlns="http://www.w3.org/2000/svg" xmlns:xlink="http://www.w3.org/1999/xlink">
    <!-- Generator: Sketch 50 (54983) - http://www.bohemiancoding.com/sketch -->
    <title>noun_1024552_cc</title>
    <desc>Created with Sketch.</desc>
    <defs></defs>
    <g id="Page-1" stroke="none" stroke-width="1" fill="none" fill-rule="evenodd">
        <g id="PROMANTUS" transform="translate(-159.000000, -2163.000000)" fill="#303344" fill-rule="nonzero">
            <g id="Group-7" transform="translate(158.000000, 1575.000000)">
                <g id="noun_1024552_cc" transform="translate(1.000000, 588.000000)">
                    <path d="M13.4,0 C12.2,0 11,0.3 10,0.9 C9,0.3 7.8,0 6.6,0 C3,0 0,3 0,6.6 C0,12.4 9,19.5 9.4,19.7 C10,20.1 10.4,19.8 10.6,19.7 C10.7,19.6 14.2,16.9 16.8,13.5 C17.1,13.1 17.1,12.4 16.6,12.1 C16.2,11.8 15.5,11.8 15.2,12.3 C13.3,14.7 11,16.7 9.9,17.6 C8.2,16.2 5.4,13.6 3.6,10.9 L9,10.9 C9.5,10.9 9.9,10.6 10,10.1 L10.3,8.7 L11.1,10.3 C11.3,10.6 11.6,10.8 11.9,10.9 C12.3,10.9 12.6,10.8 12.8,10.5 L14,9 L14.2,9.5 C14.4,9.8 14.7,10.1 15.1,10.1 L18.5,10.1 C18.9,10.1 19.3,9.8 19.4,9.5 C19.8,8.5 20,7.6 20,6.8 C20,3 17,0 13.4,0 Z M17.8,8 L15.7,8 L15,6.5 C14.8,6.2 14.5,6 14.2,6 C13.8,6 13.5,6.1 13.3,6.4 L12.3,8 L11,5.5 C10.8,5.1 10.4,4.9 10,5 C9.6,5 9.2,5.3 9.1,5.7 L8.3,9 L2.6,9 C2.2,8.2 2,7.4 2,6.6 C2,4.1 4.1,2 6.6,2 C7.6,2 8.6,2.3 9.4,2.9 C9.8,3.2 10.3,3.2 10.6,2.9 C11.4,2.3 12.4,2 13.4,2 C15.9,2 18,4.1 18,6.6 C18,7.1 17.9,7.5 17.8,8 Z" id="Shape"></path>
                </g>
            </g>
        </g>
    </g>
</svg>