<?xml version="1.0" encoding="UTF-8"?>
<svg width="20px" height="20px" viewBox="0 0 20 20" version="1.1" xmlns="http://www.w3.org/2000/svg" xmlns:xlink="http://www.w3.org/1999/xlink">
    <!-- Generator: Sketch 50 (54983) - http://www.bohemiancoding.com/sketch -->
    <title>noun_1024633_cc</title>
    <desc>Created with Sketch.</desc>
    <defs></defs>
    <g id="Page-1" stroke="none" stroke-width="1" fill="none" fill-rule="evenodd">
        <g id="PROMANTUS" transform="translate(-800.000000, -1813.000000)" fill="#303344" fill-rule="nonzero">
            <g id="Group-7" transform="translate(158.000000, 1575.000000)">
                <g id="noun_1024633_cc" transform="translate(642.000000, 238.000000)">
                    <g id="Group">
                        <path d="M6,11 C6,10.4 5.6,10 5,10 L3.9,10 L3.9,8.4 C6.4,9.5 8.5,8.4 9.5,7.4 C9.7,7.2 10.1,6.6 9.5,6 L7.3,3.7 L7.6,3.4 C8,3 8,2.4 7.7,2 C7.3,1.6 6.7,1.6 6.3,2 L5.9,2.3 L3.9,0.3 C3.5,-0.1 2.9,-0.1 2.5,0.3 C0.7,2 0.5,4.8 1.9,6.7 L1.9,10 L1,10 C0.4,10 0,10.4 0,11 C0,11.6 0.4,12 1,12 L5,12 C5.6,12 6,11.6 6,11 Z M3.3,2.5 L5.2,4.4 L7.3,6.5 C6.2,7 4.8,6.8 3.9,5.9 C2.9,5 2.7,3.6 3.3,2.5 Z" id="Shape"></path>
                        <path d="M19,9 L11,9 C10.4,9 10,9.4 10,10 L10,16 C10,16.6 10.4,17 11,17 L14,17 L14,18 L13.5,18 C12.9,18 12.5,18.4 12.5,19 C12.5,19.6 12.9,20 13.5,20 L16.6,20 C17.2,20 17.6,19.6 17.6,19 C17.6,18.4 17.2,18 16.6,18 L16,18 L16,17 L19,17 C19.6,17 20,16.6 20,16 L20,10 C20,9.5 19.6,9 19,9 Z M18,15 L12,15 L12,11 L18,11 L18,15 Z" id="Shape"></path>
                        <path d="M12,2 L16,2 L16,6 C16,6.6 16.4,7 17,7 C17.6,7 18,6.6 18,6 L18,1 C18,0.4 17.6,0 17,0 L12,0 C11.4,0 11,0.4 11,1 C11,1.6 11.4,2 12,2 Z" id="Shape"></path>
                        <path d="M9,18 L5,18 L5,14 C5,13.4 4.6,13 4,13 C3.4,13 3,13.4 3,14 L3,19 C3,19.6 3.4,20 4,20 L9,20 C9.6,20 10,19.6 10,19 C10,18.4 9.6,18 9,18 Z" id="Shape"></path>
                    </g>
                </g>
            </g>
        </g>
    </g>
</svg>