<?xml version="1.0" encoding="UTF-8"?>
<svg width="20px" height="21px" viewBox="0 0 20 21" version="1.1" xmlns="http://www.w3.org/2000/svg" xmlns:xlink="http://www.w3.org/1999/xlink">
    <!-- Generator: Sketch 50 (54983) - http://www.bohemiancoding.com/sketch -->
    <title>noun_1024573_cc</title>
    <desc>Created with Sketch.</desc>
    <defs></defs>
    <g id="Page-1" stroke="none" stroke-width="1" fill="none" fill-rule="evenodd">
        <g id="PROMANTUS" transform="translate(-798.000000, -1993.000000)" fill="#303344" fill-rule="nonzero">
            <g id="Group-7" transform="translate(158.000000, 1575.000000)">
                <g id="noun_1024573_cc" transform="translate(640.000000, 418.000000)">
                    <path d="M18.9,10 L17.9,10 L17.9,4.4 L18.9,4.2 C19.4,4.1 19.8,3.6 19.7,3 C19.6,2.5 19.1,2.1 18.5,2.2 L8.6,4.2 C8.3,3.5 7.7,3 6.9,2.8 L6.9,1 C6.9,0.4 6.5,0 5.9,0 C5.3,0 4.9,0.4 4.9,1 L4.9,2.8 C3.7,3.2 2.9,4.2 2.7,5.4 L0.9,5.8 C0.3,5.9 -2.22044605e-16,6.4 0.1,7 C0.2,7.5 0.7,7.9 1.3,7.8 L3.2,7.4 C3.6,8.1 4.2,8.6 5,8.9 L5,14.2 C2.7,14.7 1,16.7 1,19.1 C1,19.7 1.4,20.1 2,20.1 L10,20.1 C10.6,20.1 11,19.7 11,19.1 C11,16.7 9.3,14.7 7,14.2 L7,8.8 C8.2,8.4 9,7.4 9.2,6.2 L16,4.8 L16,10 L15,10 C14.4,10 14,10.4 14,11 C14,11.6 14.4,12 15,12 L19,12 C19.6,12 20,11.6 20,11 C20,10.4 19.5,10 18.9,10 Z M8.8,18 L3.1,18 C3.5,16.8 4.6,16 5.9,16 C7.2,16 8.3,16.8 8.8,18 Z M5.9,7 C5.3,7 4.7,6.5 4.7,5.8 C4.7,5.1 5.2,4.6 5.9,4.6 C6.6,4.6 7.1,5.1 7.1,5.8 C7.1,6.5 6.6,7 5.9,7 Z" id="Shape"></path>
                </g>
            </g>
        </g>
    </g>
</svg>