<?xml version="1.0" encoding="UTF-8"?>
<svg width="23px" height="30px" viewBox="0 0 23 30" version="1.1" xmlns="http://www.w3.org/2000/svg" xmlns:xlink="http://www.w3.org/1999/xlink">
    <!-- Generator: Sketch 50 (54983) - http://www.bohemiancoding.com/sketch -->
    <title>noun_1605390_cc</title>
    <desc>Created with Sketch.</desc>
    <defs></defs>
    <g id="Page-1" stroke="none" stroke-width="1" fill="none" fill-rule="evenodd">
        <g id="PROMANTUS" transform="translate(-444.000000, -4940.000000)" fill="#69F1B3" fill-rule="nonzero">
            <g id="Group-4" transform="translate(-95.000000, 4879.000000)">
                <g id="Group-22" transform="translate(195.000000, 47.000000)">
                    <g id="noun_1605390_cc" transform="translate(344.000000, 14.000000)">
                        <g id="Group">
                            <path d="M10.1722105,29.2903552 C10.7887081,30.2365483 12.2683024,30.2365483 12.8848,29.2903552 L21.4541167,16.5167483 C22.5021627,14.8017732 23.0570105,12.85025 22.9953607,10.7213155 C22.8720612,5.04415685 18.0633799,0.313191326 12.1450029,0.0175059804 C5.4868287,-0.337316434 0,4.74847151 0,11.0170008 C0,13.0276612 0.554847846,14.9200474 1.54124402,16.5167483 L10.1722105,29.2903552 Z M11.5,6 C14.521978,6 17,8.47802198 17,11.5 C17,14.521978 14.521978,17 11.5,17 C8.47802198,17 6,14.521978 6,11.5 C6,8.47802198 8.47802198,6 11.5,6 Z" id="Shape"></path>
                        </g>
                    </g>
                </g>
            </g>
        </g>
    </g>
</svg>