<?xml version="1.0" encoding="UTF-8"?>
<svg width="18px" height="27px" viewBox="0 0 18 27" version="1.1" xmlns="http://www.w3.org/2000/svg" xmlns:xlink="http://www.w3.org/1999/xlink">
    <!-- Generator: Sketch 50 (54983) - http://www.bohemiancoding.com/sketch -->
    <title>noun_1241946_cc</title>
    <desc>Created with Sketch.</desc>
    <defs></defs>
    <g id="Page-1" stroke="none" stroke-width="1" fill="none" fill-rule="evenodd">
        <g id="PROMANTUS" transform="translate(-447.000000, -4993.000000)" fill="#69F1B3" fill-rule="nonzero">
            <g id="Group-4" transform="translate(-95.000000, 4879.000000)">
                <g id="Group-22" transform="translate(195.000000, 47.000000)">
                    <g id="noun_1241946_cc" transform="translate(347.000000, 67.000000)">
                        <path d="M14.8026316,0 L3.19736842,0 C1.45065789,0 0,1.36421053 0,3.06947368 L0,23.9305263 C0,25.6073684 1.42105263,27 3.19736842,27 L14.8026316,27 C16.5493421,27 18,25.6357895 18,23.9305263 L18,3.06947368 C18,1.36421053 16.5789474,0 14.8026316,0 Z M9,25 C7.9,25 7,24.325 7,23.5 C7,22.675 7.9,22 9,22 C10.1,22 11,22.675 11,23.5 C11,24.325 10.1,25 9,25 Z M14.2630874,20 L2.73519709,20 C2.32348672,20 2,19.6847134 2,19.2834395 L2,2.71656051 C2,2.31528662 2.32348672,2 2.73519709,2 L14.2630874,2 C14.6747978,2 14.9982845,2.31528662 14.9982845,2.71656051 L14.9982845,19.2834395 C15.0276924,19.6847134 14.6747978,20 14.2630874,20 Z" id="Shape"></path>
                    </g>
                </g>
            </g>
        </g>
    </g>
</svg>