<?xml version="1.0" encoding="UTF-8"?>
<svg width="20px" height="20px" viewBox="0 0 20 20" version="1.1" xmlns="http://www.w3.org/2000/svg" xmlns:xlink="http://www.w3.org/1999/xlink">
    <!-- Generator: Sketch 50 (54983) - http://www.bohemiancoding.com/sketch -->
    <title>noun_1024587_cc</title>
    <desc>Created with Sketch.</desc>
    <defs></defs>
    <g id="Page-1" stroke="none" stroke-width="1" fill="none" fill-rule="evenodd">
        <g id="PROMANTUS" transform="translate(-799.000000, -2163.000000)" fill="#303344" fill-rule="nonzero">
            <g id="Group-7" transform="translate(158.000000, 1575.000000)">
                <g id="noun_1024587_cc" transform="translate(641.000000, 588.000000)">
                    <path d="M20,10 C20,8.7 19.2,7.6 18,7.2 L18,5.8 C19.2,5.4 20,4.3 20,3 C20,1.3 18.7,0 17,0 C15.7,0 14.6,0.8 14.2,2 L12.8,2 C12.4,0.8 11.3,0 10,0 C8.7,0 7.6,0.8 7.2,2 L5.8,2 C5.4,0.8 4.3,0 3,0 C1.3,0 0,1.3 0,3 C0,4.3 0.8,5.4 2,5.8 L2,7.2 C0.8,7.6 0,8.7 0,10 C0,11.3 0.8,12.4 2,12.8 L2,14.2 C0.8,14.6 0,15.7 0,17 C0,18.7 1.3,20 3,20 C4.3,20 5.4,19.2 5.8,18 L7.2,18 C7.6,19.2 8.7,20 10,20 C11.3,20 12.4,19.2 12.8,18 L14.2,18 C14.6,19.2 15.7,20 17,20 C18.7,20 20,18.7 20,17 C20,15.7 19.2,14.6 18,14.2 L18,12.8 C19.2,12.4 20,11.3 20,10 Z M17,2 C17.6,2 18,2.4 18,3 C18,3.6 17.6,4 17,4 C16.4,4 16,3.6 16,3 C16,2.4 16.4,2 17,2 Z M12.8,4 L14.2,4 C14.5,4.8 15.2,5.5 16,5.8 L16,7.2 C15.2,7.5 14.5,8.2 14.2,9 L12.8,9 C12.5,8.2 11.8,7.5 11,7.2 L11,5.8 C11.8,5.5 12.5,4.8 12.8,4 Z M10,2 C10.6,2 11,2.4 11,3 C11,3.6 10.6,4 10,4 C9.4,4 9,3.6 9,3 C9,2.4 9.4,2 10,2 Z M11,10 C11,10.6 10.6,11 10,11 C9.4,11 9,10.6 9,10 C9,9.4 9.4,9 10,9 C10.6,9 11,9.4 11,10 Z M5.8,4 L7.2,4 C7.5,4.8 8.2,5.5 9,5.8 L9,7.2 C8.2,7.5 7.5,8.2 7.2,9 L5.8,9 C5.5,8.2 4.8,7.5 4,7.2 L4,5.8 C4.8,5.5 5.5,4.8 5.8,4 Z M3,2 C3.6,2 4,2.4 4,3 C4,3.6 3.6,4 3,4 C2.4,4 2,3.6 2,3 C2,2.4 2.4,2 3,2 Z M3,9 C3.6,9 4,9.4 4,10 C4,10.6 3.6,11 3,11 C2.4,11 2,10.6 2,10 C2,9.4 2.4,9 3,9 Z M3,18 C2.4,18 2,17.6 2,17 C2,16.4 2.4,16 3,16 C3.6,16 4,16.4 4,17 C4,17.6 3.6,18 3,18 Z M7.2,16 L5.8,16 C5.5,15.2 4.8,14.5 4,14.2 L4,12.8 C4.8,12.5 5.5,11.8 5.8,11 L7.2,11 C7.5,11.8 8.2,12.5 9,12.8 L9,14.2 C8.2,14.5 7.5,15.2 7.2,16 Z M10,18 C9.4,18 9,17.6 9,17 C9,16.4 9.4,16 10,16 C10.6,16 11,16.4 11,17 C11,17.6 10.6,18 10,18 Z M14.2,16 L12.8,16 C12.5,15.2 11.8,14.5 11,14.2 L11,12.8 C11.8,12.5 12.5,11.8 12.8,11 L14.2,11 C14.5,11.8 15.2,12.5 16,12.8 L16,14.2 C15.2,14.5 14.5,15.2 14.2,16 Z M17,18 C16.4,18 16,17.6 16,17 C16,16.4 16.4,16 17,16 C17.6,16 18,16.4 18,17 C18,17.6 17.6,18 17,18 Z M17,11 C16.4,11 16,10.6 16,10 C16,9.4 16.4,9 17,9 C17.6,9 18,9.4 18,10 C18,10.6 17.6,11 17,11 Z" id="Shape"></path>
                </g>
            </g>
        </g>
    </g>
</svg>